<?xml version="1.0" encoding="UTF-8"?>
<svg id="Layer_1" data-name="Layer 1" xmlns="http://www.w3.org/2000/svg" viewBox="0 0 469.03 464.16">
  <defs>
    <style>
      .cls-1 {
        fill: #fff;
      }

      .cls-2 {
        fill: #c49b29;
      }

      .cls-3 {
        stroke-width: 2px;
      }

      .cls-3, .cls-4 {
        fill: none;
        stroke: #fff;
        stroke-miterlimit: 10;
      }

      .cls-4 {
        stroke-width: 11px;
      }
    </style>
  </defs>
  <circle class="cls-1" cx="240.54" cy="229.4" r="197.32"/>
  <circle cx="236.3" cy="236.06" r="147.14"/>
  <g>
    <path class="cls-4" d="m331.59,355.16c2.08-1.74,5.11.47,4.06,2.97-16.06,38.33-53.93,65.26-98.09,65.26-58.71,0-106.31-47.6-106.31-106.31,0,0-.42-65.9,75.93-100.81,76.35-34.91,91.24-69.73,84.19-94.25-6.67-23.21-64.88-52.74-115.24-17.61-1.65,1.15-3.65-.91-2.45-2.53,17.23-23.16,44.82-38.16,75.91-38.16,50.86,0,101.07,41.09,89.64,90.97-.53,2.31-1.04,4.63-1.5,6.97-2.26,11.64-15.47,55.59-89.33,92.22-77.81,38.59-73.49,84.28-64.58,107.62,4.67,12.25,50.66,74.84,147.78-6.34Z"/>
    <path class="cls-4" d="m176.13,104.41s51.06,62.47,0,130.6"/>
    <path class="cls-4" d="m331.59,355.16s-85.04-22.15-94.71-95.19"/>
    <path class="cls-3" d="m226.94,271.17s11.62,88.29,77.11,100.28"/>
    <path class="cls-3" d="m219.91,269.25s-40.19,103.56,46.95,123.25"/>
    <path class="cls-3" d="m196.35,93.73s68.7,28.46,3.95,125.88"/>
    <path class="cls-3" d="m248.4,90.9s47.65,41.83-26.18,118.1"/>
  </g>
  <g>
    <path class="cls-2" d="m412.45,263.47c.08-.59.15-1.17.22-1.71.04-.54.08-1.04.11-1.47.06-.86.11-1.42.11-1.42-.19-.02-.38.02-.58.03.08,1.67.16,3.17.14,4.57Z"/>
    <path class="cls-2" d="m418.86,268.91c.06-.49.13-1,.19-1.5-.18.15-.34.16-.51.23.11.4.23.8.32,1.27Z"/>
    <path class="cls-2" d="m412.29,258.89c-2.17.18-4.44,1.82-6.41-.62.09-1.22.23-3.05.38-4.89.16-1.83.12-3.68.17-4.92-1.11-2.48-2.34-.06-3.52-.1.06-2.41.13-4.81-.46-4.81-.38-.45-.74-.61-1.06-.5-.32.11-.6.51-.86,1-.52,1.02-.92,2.8-1.16,5.08,1.67,2.6,2.69,6.23,3.65,9.84.52,1.81.81,3.59,1.15,5.22.33,1.63.66,3.12,1.01,4.3.37,1.19.67,2.07,1.08,2.52.4.44.88.45,1.48-.14.62-.58,1.24-1.77,2.01-3.71.38-.97.79-2.13,1.24-3.5.22-.68.46-1.42.69-2.21.19-.8.39-1.65.61-2.56Z"/>
    <path class="cls-2" d="m414.05,279.92c.79-4.51,1.7-9,2.17-13.57-1.16-1.59-2.25-3.62-3.76-2.42.02,1.75.08,3.35.17,4.82.05.74.11,1.45.16,2.13.03.68.07,1.33.12,1.97.2,2.54.58,4.78,1.15,7.07Z"/>
    <path class="cls-2" d="m416.36,205.84c.35-.07.63.12.52,2.59-.18-.91-.29-1.75-.52-2.59-.34.04-.78.28-1.26-.83,2.56,8.83,4.69,19.48,5.37,29.99.66,1.34,1.32,2.64,1.98,3.84-.49-13.12-2.32-26.2-5.63-38.25-3.29-12.05-8.06-23.05-13.82-32.01.39.85.77,1.68,1.14,2.5.39.81.75,1.61,1.07,2.42.67,1.6,1.33,3.15,1.96,4.66.33.75.65,1.5.97,2.24.31.74.57,1.5.86,2.23.57,1.48,1.13,2.94,1.7,4.4.28.73.58,1.45.84,2.19.24.74.49,1.48.74,2.23.49,1.49.98,3,1.48,4.54.53,1.53.91,3.13,1.34,4.77.41,1.64.83,3.33,1.26,5.09Z"/>
    <path class="cls-2" d="m426.05,240.83c.03.93.06,1.8.09,2.72.46-2.45.27-2.71-.09-2.72Z"/>
    <path class="cls-2" d="m92.02,141.86c-8.52,12.85-12.87,25.91-15.91,38.93,2.08-6.75,4.94-13.29,7.87-19.72,3.18-6.3,6.47-12.51,10.21-18.21,7.31-11.52,15.46-21.55,22.87-29.82-9.26,8.71-17.65,18.37-25.04,28.83Z"/>
    <path class="cls-2" d="m72.04,245.29c.02-.55.03-1.11.05-1.65.04-.55.08-1.09.12-1.64.07-1.08.14-2.15.2-3.22.05-1.06.09-2.11.14-3.15.03-1.04.16-2.06.23-3.08.16-2.03.25-4.03.34-5.99.19-1.95.34-3.88.46-5.78.07-.95.08-1.9.18-2.83.09-.93.18-1.86.27-2.79.18-1.85.27-3.69.45-5.5.22-1.8.41-3.6.59-5.39.1-.89.15-1.8.27-2.68.13-.88.25-1.77.38-2.64-3.43,13.95-4.74,28.22-4.53,42.34.12.66.25,1.34.37,2.02.14.67.32,1.34.49,1.97Z"/>
    <path class="cls-2" d="m69.34,225.25c.27-2.05.5-4.07.69-6.06.07-1,.21-1.98.36-2.95.13-.97.25-1.94.37-2.9.37-3.86,1.04-7.55,1.46-11.24.23-1.84.6-3.62.86-5.43.3-1.79.49-3.61.88-5.36.7-3.53,1.27-7.08,2.16-10.54-1.34,3.76-2.23,7.64-3.26,11.4-.44,1.91-.8,3.82-1.19,5.71-.19.94-.38,1.88-.57,2.82-.16.94-.27,1.89-.41,2.83-.26,1.88-.51,3.74-.76,5.58-.16,1.86-.28,3.7-.41,5.51-.06.9-.12,1.8-.18,2.7-.06.89-.02,1.79-.04,2.68,0,1.77.01,3.51.02,5.23Z"/>
    <path class="cls-2" d="m340.78,47.78c6.71,2.71,12.06,5.12,16.15,7.33,2.06,1.09,3.88,2.01,5.39,2.91,1.5.91,2.77,1.71,3.82,2.4,2.27.64,5.32,1.45,9.23,2.99-.68-.53-1.4-1.09-2.07-1.62-12.77-8.34-26.44-15.54-40.79-21.33-3.03-.97-5.99-1.89-8.81-2.7-2.85-.73-5.58-1.3-8.07-1.77l6.44,2.66c2.13.92,4.22,1.95,6.32,2.91,4.24,1.88,8.3,4.12,12.39,6.21Z"/>
    <path class="cls-2" d="m366.13,60.42c-4.87-1.31-6.24-1.24-5.87-.66.37.59,2.48,1.73,4.7,2.72,4.44,1.97,9.37,3.34,1.17-2.06Z"/>
    <path class="cls-2" d="m273.12,59.51c-.6-.11-1.22-.21-1.83-.32-1.78-.18-3.62-.37-5.39-.56,2.46.3,4.8.58,7.23.88Z"/>
    <path class="cls-2" d="m120.09,75.56c9.43-6.8,19.37-12.97,29.57-18.36-21.28,10.56-40.64,25.17-53.4,40.11,1.05-1,2.21-1.9,3.37-2.8,1.14-.91,2.38-1.71,3.47-2.68,1.81-2.34,4.15-5.23,7.1-8.01,1.46-1.41,2.98-2.9,4.65-4.28,1.68-1.36,3.45-2.7,5.25-3.98Z"/>
    <path class="cls-2" d="m352.7,89.44c-12.51-8.56-25.95-15.32-39.66-20.4l-2.56-.97-2.61-.84c-1.73-.56-3.46-1.11-5.19-1.66-1.71-.58-3.49-.96-5.23-1.45-1.74-.45-3.47-.94-5.21-1.36-1.75-.37-3.5-.73-5.25-1.1-1.75-.35-3.47-.77-5.23-1-1.75-.27-3.5-.54-5.24-.81-.87-.13-1.74-.28-2.61-.39l-2.62-.27c-27.91-5.13-56.51-3.51-82.09,4.21-25.61,7.7-48.11,21.32-65.21,37.95-7.47,7.39-15.97,16.36-23.98,26.88-.51.65-1.01,1.31-1.52,1.96-.48.68-.96,1.36-1.45,2.05-.97,1.37-1.95,2.74-2.93,4.13-.98,1.38-1.86,2.86-2.8,4.3-.91,1.46-1.9,2.87-2.76,4.37-.86,1.5-1.73,3.01-2.6,4.52l-1.3,2.27-1.19,2.34c-.8,1.55-1.59,3.11-2.39,4.67-.76,1.58-1.45,3.19-2.17,4.79-2.92,6.36-5.2,12.99-7.22,19.52-.43,1.65-.86,3.3-1.29,4.94-.4,1.64-.89,3.24-1.17,4.9-.31,1.64-.63,3.26-.94,4.87-.15.81-.31,1.6-.44,2.41-.1.81-.21,1.61-.31,2.41-1.76,12.77-1.38,24.75.6,34.54.13-2.09.41-4.12.63-6.11.1-1,.19-1.98.29-2.96.09-.98.15-1.95.3-2.9-.02,1.43.16,2.85.25,4.24.12,1.38.24,2.75.36,4.09.09,1.33.34,2.65.55,3.94.23,1.28.46,2.54.68,3.78.59,31.57,9.97,62.07,26.77,87.99,16.74,25.93,40.8,47.25,69.25,60.68,2.13.95,4.17,1.76,6.15,2.48,2.03.62,4,1.15,5.97,1.7,1.94.6,3.97.94,6,1.48,1.02.26,2.04.54,3.09.84,1.06.28,2.14.53,3.25.85,4.48,1.31,9.02,2.26,13.53,3.16,2.27.38,4.53.75,6.8,1.13,2.28.26,4.55.51,6.82.77.05-.13-.05-.27-.29-.43,9.43.83,18.92.81,28.29-.01,9.37-.82,18.63-2.5,27.63-5.1,18.02-5.14,35.15-13.64,50.34-25.33,14.44-10.61,27.7-23.04,38.17-37.64.97-1.37,1.83-2.31,2.62-3.01.75-.72,1.41-1.21,2.07-1.62,1.31-.83,2.55-1.4,4.04-3.16,5.98-7.06,10.75-13.77,15.01-21.18,4.27-7.4,7.85-15.61,10.73-25.91,0,0,1.15.25,1.72.38.15-.81.29-1.61.43-2.38.11-.78.23-1.52.36-2.24.26-1.44.55-2.76.86-3.94,1.12,2.8,2,6.66,2.29,10.39.18,1.89.35,3.75.51,5.44.09,1.69.17,3.22.34,4.45.33,2.47.92,3.77,2.22,2.73,1.25-1.06,3.46-4.39,6.16-11.51,0,0,0,0,.02,0-.19,1.67-.34,3.18-.47,4.63-.04.18-.08.33-.11.49.03-.01.05,0,.07-.02-.12,1.8-.39,3.39-.51,4.89-.14,1.49-.22,2.87-.26,4.18,0,1.31-.06,2.53-.06,3.72,0,1.19.07,2.36.17,3.55l1.12-3.31c.38-1.1.75-2.21,1.05-3.34.64-2.25,1.28-4.49,1.92-6.75.55,1.06,1.19,1.83,2.12,1.57.04.44.09.84.11,1.32-.58,2.03-1.06,3.73-1.06,3.73.25.79.54,1.41.88,1.88-.3,3.18-1,6.74-1.64,10.31-.84,3.5-1.66,7.02-2.41,10.02-1.64,5.95-2.51,10.1-.6,8.85,1.18-1.1,2.51-3.94,4.01-7.75.7-1.92,1.35-4.13,2.08-6.46.35-1.17.75-2.37,1.09-3.62.32-1.25.65-2.53.99-3.83.42-.54.85-1.18,1.24-1.85-1.98,6.76-1.02,7.13.17,6.81.6-.16,1.25-.5,1.62-.27.36.22.48,1.03-.2,3.09-4.02,10.8-8.53,21.5-14.44,31.46-6.01,10.13-12.62,19.35-19.71,27.86-.9,1.05-1.79,2.1-2.69,3.15-.9,1.04-1.77,2.11-2.72,3.1-1.87,2.01-3.74,4-5.59,5.99-1.95,1.91-3.89,3.81-5.82,5.7-.95.97-1.97,1.86-2.98,2.76l-3.03,2.71c-8.14,7.14-16.77,13.69-26.04,19.7-9.29,5.96-19.24,11.3-29.97,16-.95.41-1.89.82-2.84,1.23-.94.41-1.89.82-2.85,1.16-2.67.99-5.32,1.97-7.95,2.95-2.67.86-5.35,1.67-8.01,2.48-.67.2-1.33.42-2,.59l-2.02.5c-1.35.33-2.69.66-4.04.99-1.35.32-2.68.68-4.03.95l-4.07.76c-5.4,1.1-10.87,1.7-16.35,2.31-2.75.18-5.5.36-8.26.54-1.38.11-2.77.1-4.15.11-1.39,0-2.78.02-4.17.03,1.41-.44,2.89-.85,4.38-1.25-17.82.25-35.62-1.34-53.24-4.54-21.68-3.62-42.88-11.12-62.73-22.1-19.79-11.07-38.08-25.93-53.52-44.32-16.11-19.32-28.51-41.16-37.06-64.6-8.51-23.44-13.19-48.58-13.15-74.54.55,21.24,4.06,42.16,10.09,62.79.65,2.32,1.3,4.65,1.94,6.96.76,2.28,1.52,4.56,2.28,6.82.39,1.13.75,2.27,1.17,3.38.44,1.11.88,2.21,1.31,3.31.89,2.19,1.73,4.39,2.68,6.52-.91-2.24-1.72-4.51-2.6-6.74-.43-1.12-.86-2.23-1.29-3.35-.39-1.13-.77-2.26-1.16-3.38-.77-2.25-1.54-4.5-2.31-6.73-.68-2.27-1.36-4.53-2.04-6.78-.3-1.12-.64-2.23-.9-3.37l-.76-3.4c-.5-2.27-1.04-4.54-1.49-6.82-.4-2.29-.79-4.58-1.19-6.87-.19-1.14-.42-2.28-.56-3.43l-.43-3.44c-.28-2.29-.6-4.57-.85-6.85-.19-2.28-.38-4.56-.57-6.82-.1-1.13-.19-2.26-.29-3.39-.05-1.13-.09-2.25-.14-3.38-.11-2.25-.21-4.48-.31-6.69-.52-17.75.55-34.48,1.2-49.33.59-1.49,1.03-2.19,1.41-2.9.38-.71.67-1.42,1.1-2.88,2.71-10.4,6.51-20.45,10.42-30.01,1.01-2.38,2.02-4.74,3.01-7.07,1.05-2.31,2.08-4.59,3.1-6.84.5-1.13.99-2.26,1.48-3.38.52-1.1,1.04-2.2,1.55-3.28,1.02-2.18,1.96-4.36,2.91-6.5-.51-.3,4.52-8.14,1.86-6.17.6-1,1.21-2.01,1.83-3.03.66-.99,1.33-1.99,2-2.99,1.36-2,2.72-4.06,4.16-6.08,3-3.96,5.98-8.07,9.29-11.92,3.17-3.97,6.65-7.66,9.96-11.4,1.73-1.8,3.44-3.58,5.12-5.34.84-.88,1.68-1.76,2.51-2.62.86-.84,1.71-1.67,2.55-2.49,1.48-1.41,2.92-2.85,4.35-4.32l4.38-4.32c1.46-1.44,2.86-2.98,4.36-4.42l4.46-4.38C164.18,20.85,239.3,4.02,313.05,26.76c2.29.66,4.56,1.53,6.88,2.38,2.31.87,4.67,1.69,7,2.67,4.63,2.01,9.39,3.99,13.96,6.39l3.45,1.74c1.15.57,2.3,1.17,3.4,1.82,2.23,1.27,4.46,2.54,6.66,3.8,1.11.62,2.18,1.29,3.24,1.97,1.06.68,2.12,1.35,3.17,2.02,2.08,1.36,4.19,2.62,6.14,4.06-24.5-14.52-52.07-25.02-80.83-29.98-13.73-3.33-27.53-5.14-40.58-5.36-13.04-.3-25.34,1.25-36.08,4.02-2.51.61-5,1.17-7.48,1.81-2.46.7-4.92,1.39-7.38,2.09,30.04-7.03,61.32-7.8,91.53-2.55,16.23,3.91,32.3,9.91,47.36,17.13-.33-.1-.62-.2-.97-.3-12.14-4.98-24.79-8.84-37.68-11.65-11.92-3.42-23.93-5.71-35.5-6.73-5.79-.35-11.45-.72-16.93-.47-1.37.05-2.73.09-4.07.14-.67.03-1.34.06-2.01.09-.67.06-1.33.13-1.99.19-2.64.26-5.22.56-7.73.89-1.26.15-2.5.37-3.73.62-1.23.24-2.44.49-3.61.74-4.98.84-9.91,2.08-14.8,3.2,4.62-.76,9.23-1.69,13.89-2.15,2.32-.27,4.65-.57,6.98-.82,2.33-.16,4.67-.33,7-.49l3.5-.24c1.17-.07,2.34-.06,3.5-.1,2.34-.04,4.68-.09,7.01-.13,2.34-.05,4.67.1,7.01.14l3.51.11c1.17.03,2.34.07,3.5.18,2.9.23,5.79.46,8.68.7,2.89.28,5.76.71,8.65,1.07,2.89.33,5.75.86,8.61,1.38,2.86.52,5.73.99,8.55,1.68,7,2.02,13.98,4.43,20.8,7.18-.77-.15-1.59-.31-2.3-.42-1.55-.45-3.95-.65-6.47-.72-1.27-.03-2.57-.01-3.83.05-.63.03-1.25.08-1.85.14-.61.08-1.19.17-1.74.28-4.44.83-6.89,2.39-2.73,4.49,11.32,3.31,23.54,7.82,35.15,13.37,11.62,5.53,22.65,12.03,31.89,18.52,4.56,3.32,8.86,6.4,12.49,9.47,1.82,1.52,3.6,2.89,5.15,4.28,1.55,1.4,2.98,2.69,4.28,3.86,2.64,2.32,4.57,4.35,5.91,5.71,1.34,1.38,2.05,2.15,1.99,2.2.05.48-.82,0-2.37-1.17-1.57-1.16-3.73-3.12-6.56-5.3-1.39-1.12-2.9-2.34-4.51-3.64-1.58-1.32-3.39-2.58-5.18-3.96-3.56-2.8-7.6-5.5-11.56-8.25-2-1.35-4.08-2.6-6.08-3.87-1-.63-2-1.25-2.98-1.87-.99-.6-2-1.14-2.98-1.7-1.95-1.1-3.84-2.17-5.62-3.17-1.79-.97-3.53-1.8-5.09-2.59-1.57-.78-2.99-1.49-4.24-2.1-1.26-.58-2.36-1.03-3.23-1.4-1.74-.73-2.6-1.04-2.3-.81,1.91,1.15,3.86,2.21,5.74,3.41,1.87,1.2,3.74,2.39,5.61,3.58-1.94-.83-3.87-1.65-5.74-2.46-.47-.2-.94-.39-1.4-.58-.47-.17-.94-.34-1.41-.51-.93-.32-1.85-.64-2.75-.96-1.03-.44-2.09-.92-3.17-1.43-1.08-.51-2.17-1.04-3.32-1.51-2.26-.98-4.56-1.99-6.78-2.95-2.22-.96-4.43-1.69-6.41-2.37-2-.64-3.77-1.21-5.28-1.38-10.33-1.87-21.07-4.17-32.28-5.85-1.4-.2-2.81-.39-4.22-.59l-2.12-.3c-.71-.09-1.42-.14-2.14-.2-2.86-.25-5.73-.52-8.61-.71-2.89-.09-5.79-.15-8.69-.16-2.9,0-5.81.25-8.7.45-.9.09-1.82.18-2.75.27-.92.14-1.86.27-2.8.41-1.88.29-3.79.58-5.74.88-1.94.26-3.9.73-5.88,1.13-1.97.42-3.97.84-6,1.27-8.02,2.07-16.24,4.4-24.13,7.58.13.57-1.88,1.18-3.54,1.72-1.66.58-2.95,1.13-1.46,1.31-3.76,1.1-7.71,2.08-11.46,3.51-1.89.67-3.76,1.33-5.57,2.03-1.79.77-3.52,1.54-5.18,2.31-3.35,1.47-6.25,3.26-8.67,4.85-2.43,1.57-4.22,3.28-5.31,4.79-.32.2-.64.4-.95.59-.96.5-2.25,1.36-3.57,2.36-11.35,5.87-19.97,12.67-27.44,20.05-7.47,7.4-13.87,15.35-20.47,24.54-1.21,1.51-2.44,3.03-3.66,4.55-1.17,1.57-2.34,3.14-3.52,4.73-.59.79-1.19,1.58-1.78,2.37-.56.82-1.13,1.64-1.69,2.46-1.14,1.64-2.29,3.28-3.45,4.94,1.5-2.18,3.56-4.76,5.51-7.41,2.11-2.54,4.11-5.15,5.56-7.39,1.02-1.44,2.03-2.85,3.03-4.25,6.35-7.79,13.02-15.07,20.11-21.83,7.15-6.68,14.71-12.83,22.75-18.36,1.2-1.09,3.15-2.85,5.05-4.4,1.26-.64,2.55-1.24,3.84-1.84.19-.37.42-.74.68-1.11,8-5,17.09-9.55,26.23-13.04,9.13-3.52,18.19-6.44,26.13-8.56,3.74-1.01,7.6-1.6,11.48-2.28,1.94-.37,3.9-.54,5.87-.76,1.97-.2,3.95-.41,5.93-.61,1.99-.09,3.98-.18,5.98-.27,2-.07,4-.2,6.01-.12,4.01.09,8.05.08,12.06.48,2.01.16,4.02.31,6.03.5l6,.81,3,.41c1,.14,1.98.36,2.97.54,1.98.38,3.96.76,5.93,1.14,1.98.37,3.91.93,5.86,1.38l2.92.72c.97.23,1.94.47,2.89.78,3.82,1.18,7.67,2.18,11.37,3.57-3.78-1.11-7.65-1.81-11.45-2.66l-1.43-.3-1.44-.23-2.88-.46c-1.92-.29-3.81-.64-5.72-.89-7.66-.89-15.25-1.53-22.77-1.48,1.18.03,2.35.05,3.51.08,1.17.02,2.32.15,3.48.22,2.32.17,4.62.34,6.91.5,4.54.6,9.09.98,13.5,1.85,8.9,1.4,17.48,3.6,25.85,6.12,2.5,1.02,4.98,1.96,7.44,3l7.64,3.45,7.47,3.81c-2.27-1.29-4.53-2.58-6.79-3.87-2.3-1.19-4.63-2.32-6.95-3.47,9.89,3.48,19.35,7.88,28.43,12.76,12.31,7.09,24.01,15.65,34.61,25.57,10.57,9.95,20.08,21.2,28.19,33.45,8.1,12.25,14.84,25.49,19.77,39.37,4.97,13.87,8.26,28.3,9.8,42.83-.85-1.05-1.72-2.25-2.6-3.59-2.1-13.77-5.63-27.33-10.59-39.64-4.93-12.31-11.28-23.34-18.41-32.12,1,1.71,1.96,3.34,2.89,4.93.47.79.95,1.56,1.39,2.34.43.79.85,1.56,1.27,2.33,1.67,3.06,3.36,5.94,4.79,8.93.75,1.48,1.49,2.96,2.24,4.46.75,1.49,1.37,3.06,2.07,4.63.67,1.58,1.36,3.19,2.07,4.84.6,1.7,1.22,3.44,1.87,5.24-.32.09-.74.39-1.35-.75,3.8,9,7.4,19.98,9.29,30.99-2.16-3.27-4.2-6.91-6.64-10.37-.6-1.28-1.16-2.74-1.7-4.33-.13-.4-.27-.8-.41-1.22-.15-.41-.31-.82-.47-1.24-.3-.84-.61-1.72-.93-2.61-.63-1.78-1.22-3.66-1.92-5.54-.74-1.87-1.5-3.78-2.3-5.67-.73-2.09-1.61-4.12-2.47-6.14l-1.28-3.03c-.42-1.01-.84-2.02-1.33-3-.94-1.97-1.87-3.94-2.81-5.9-.45-.99-.96-1.94-1.47-2.9l-1.53-2.86c-1.94-3.86-4.27-7.48-6.42-11.18-1.18-1.79-2.35-3.58-3.53-5.36-.59-.89-1.16-1.79-1.78-2.67l-1.89-2.58c-9.95-13.86-21.89-26.18-35.64-36.65l-4.51-3.59c-.75-.59-1.49-1.21-2.26-1.79l-2.34-1.69-4.67-3.37-4.82-3.14-2.41-1.57c-.8-.53-1.65-.98-2.47-1.47l-4.97-2.9c-1.66-.97-3.39-1.79-5.08-2.69l-2.55-1.32-1.27-.66-1.3-.6c-13.83-6.53-28.38-11.45-43.2-14.32,14.87,2.09,28.94,5.96,42.21,11.01,13.26,5.1,25.76,11.39,37.37,18.92Zm37.58,242.98c-.55,1.21-1.1,2.43-1.66,3.67-.6,1.22-1.21,2.44-1.82,3.67.34-.29.67-.56,1.01-.81.66-1.06,1.26-2.15,1.64-3.29.39-1.13.66-2.24.83-3.24Zm-38.47,45.5c6.99-5.33,14.3-12.54,20.9-21.06,6.64-8.49,12.62-18.18,17.58-28.09-.08-.19-.18-.33-.29-.39-4.65,8.02-10.22,16.72-16.6,25.31-6.39,8.58-13.72,16.95-21.58,24.23Zm-64.39,22.58c.14.02.29.04.43.06-.04-.08-.09-.16-.12-.24-.1.06-.2.12-.31.19ZM54.14,267.31c2.8,10.31,5.95,21.69,10.36,33.29,4.38,11.59,10.01,23.38,17.11,34.24,4.04,6.68,10.13,11.88,16.56,19.78,4.25,4.78,7.99,8.29,11.63,11.39.91.77,1.76,1.58,2.69,2.3.92.73,1.83,1.45,2.75,2.18.91.74,1.82,1.48,2.76,2.24.92.77,1.94,1.47,2.93,2.25-.81-.99-1.68-1.91-2.44-2.94l-2.33-3.03c3.02,3.2,6.12,5.62,9.04,7.86,1.46,1.12,3,2.05,4.45,3.02.74.48,1.46.95,2.19,1.42l1.09.7,1.12.64c3.01,1.69,5.89,3.52,9.08,5.28,1.58.9,3.15,1.93,4.83,2.94,1.69.99,3.43,2.07,5.24,3.29.15-.26.89-.32,1.87-.21,1,.1,2.23.39,3.32.95,1.4.63,2.78,1.29,4.15,1.97,1.4.61,2.79,1.22,4.17,1.85,1.38.61,2.72,1.3,4.1,1.86,1.38.56,2.74,1.12,4.09,1.67,2.67,1.17,5.38,2.03,7.97,2.85,2.58.87,5.14,1.39,7.57,1.78,11.89,2.77,24,4.61,33.77,4.08.61.05,1.37,0,2.25-.11.88-.09,1.87-.29,2.93-.54,2.13-.47,4.54-.99,6.94-1.22,2.92-.21,5.83-.36,8.74-.53,2.9-.33,5.79-.59,8.67-.93-.28-.13-.53-.24-.75-.39-2.35.16-4.72.35-7.1.6-1.18.16-2.38.17-3.58.28-1.2.09-2.39.2-3.59.33-.89.09-1.8.22-2.71.28-.91.05-1.84.09-2.77.14-1.87.09-3.76.19-5.67.29-1.91,0-3.85-.02-5.79-.03-.97-.01-1.95.02-2.93-.04l-2.92-.18c-7.83-.32-15.59-1.58-22.69-3.06-2.2-.54-4.4-1.09-6.58-1.62-2.16-.64-4.32-1.27-6.46-1.9l-1.61-.47c-.53-.16-1.06-.36-1.58-.54-1.06-.37-2.11-.73-3.16-1.09-1.06-.36-2.11-.72-3.16-1.08-1.03-.41-2.06-.82-3.09-1.23l-3.09-1.22-1.55-.61-1.51-.68c-2.02-.9-4.03-1.81-6.04-2.71-1.97-.99-3.93-1.98-5.89-2.97l-1.47-.74-1.43-.81-2.87-1.61-2.87-1.61-2.78-1.74-2.79-1.73-1.39-.87-1.35-.93c-1.8-1.24-3.6-2.48-5.4-3.72-1.74-1.32-3.48-2.64-5.22-3.96-6.86-5.41-13.38-11.26-19.46-17.62-1.3-1.36-2.58-2.75-3.91-4.1l-2-2.03c-.66-.69-1.27-1.41-1.92-2.11l-3.82-4.26c-1.21-1.48-2.37-2.98-3.52-4.5-7.12-9.03-13.31-20.34-18.06-31.24-4.83-10.9-8.23-21.35-11.7-28.68-.52-1.24-1.01-3.16-1.58-5.07-.57-1.91-1.03-3.84-1.8-5.08Zm-26.87-30.34c.75,15.9,2.98,32.43,6.76,48.32,3.85,15.88,9.2,31.06,15.18,44.58,2.42,5.43,6.68,13.09,11.97,21.01,5.35,7.9,12,15.87,18.47,22.4,1.67,1.59,3.29,3.12,4.87,4.55.79.71,1.54,1.42,2.32,2.07.79.63,1.56,1.24,2.31,1.84,1.5,1.17,2.91,2.24,4.22,3.17,1.29.96,2.6,1.66,3.71,2.3,4.51,2.47,6.92,2.65,6.08-.59-1.81-.62-3.93-1.68-6.33-3.12-2.33-1.51-4.88-3.45-7.67-5.71-1.36-1.16-2.72-2.45-4.15-3.8-1.4-1.37-2.94-2.74-4.34-4.33-1.43-1.56-2.9-3.19-4.39-4.89-.76-.83-1.48-1.73-2.19-2.64-.72-.91-1.44-1.84-2.17-2.77-.73-.94-1.46-1.89-2.21-2.85-.73-.97-1.4-2-2.12-3.01-1.39-2.05-2.86-4.1-4.22-6.27-1.32-2.19-2.66-4.41-4.01-6.66-1.32-2.26-2.5-4.63-3.76-6.98-4.85-9.47-8.99-19.58-12.18-29.59-3.11-10.04-5.38-19.92-6.97-28.91-.4-2.25-.67-4.45-1.01-6.57-.3-2.12-.69-4.17-.87-6.15-.23-1.98-.46-3.88-.67-5.69-.12-.9-.23-1.79-.34-2.64-.08-.86-.16-1.7-.23-2.51-.3-3.24-.69-6.09-1.04-8.46-.29-2.37-.65-4.26-1.1-5.59-.9-2.66-2.17-3.1-3.91-.54ZM163.54,35.95c-12.23,5.31-23.55,11.27-36.52,18.74,11.49-7.35,23.73-13.64,36.52-18.74Zm-86.81,93.74c1.12-2.02,2.24-4.06,3.53-6.01,1.26-1.97,2.52-3.95,3.83-5.92,2.77-3.81,5.53-7.71,8.66-11.34,2.99-3.76,6.36-7.21,9.67-10.76,1.74-1.69,3.49-3.37,5.23-5.06l1.32-1.26,1.37-1.21,2.76-2.4,2.77-2.4c.92-.8,1.91-1.52,2.86-2.28,1.93-1.49,3.83-3.03,5.79-4.49,1.99-1.41,3.99-2.82,5.97-4.22l1.5-1.05,1.54-.98,3.08-1.96,3.07-1.96c1.03-.65,2.1-1.22,3.14-1.83,2.1-1.2,4.18-2.44,6.3-3.6,4.29-2.2,8.51-4.5,12.87-6.43,13.32-6.21,28.43-10.05,43.28-12.33,14.9-2.26,29.5-3.04,42.92-4.34l.1-1.76c-1,.1-2,.27-3,.45-2.61-.16-5.1-.34-7.51-.54-1.2-.12-2.38-.17-3.55-.21-1.17-.06-2.31-.11-3.45-.16-1.14-.06-2.26-.11-3.37-.17-1.12-.07-2.22-.11-3.33-.09-2.21,0-4.4.02-6.62.07.5-.09,1.03-.18,1.53-.27-.88.1-1.76.2-2.66.3-5.91.32-12.05.97-18.92,2.77-3.15.78-6.29,1.87-9.45,2.85l-3.41.89c-1.13.33-2.25.69-3.37,1.04-2.24.71-4.49,1.41-6.73,2.12l-6.63,2.45c-1.1.42-2.21.8-3.3,1.25l-3.24,1.39c-8.7,3.58-16.99,8.02-24.89,12.78-1.94,1.24-3.88,2.48-5.81,3.71-1.93,1.23-3.74,2.63-5.59,3.94-3.73,2.58-7.15,5.51-10.59,8.3-6.66,5.85-12.86,11.88-18.12,18.34-.84.96-1.68,1.92-2.5,2.86-.82.95-1.56,1.96-2.33,2.93-1.51,1.97-3.03,3.87-4.42,5.84-1.35,2-2.69,3.97-4.02,5.94l-.99,1.47-.92,1.52-1.82,3.03c-2.5,3.97-4.6,8.19-6.89,12.33-2.08,4.29-4.31,8.53-6.31,13.09.7-1.22,1.53-2.58,2.4-4.01.91-1.41,1.93-2.85,2.91-4.32.99-1.46,1.93-2.96,2.85-4.36.95-1.38,1.81-2.72,2.51-3.96Z"/>
    <path class="cls-2" d="m308.62,62.98c11.51,3.84,22.79,8.86,33.58,15.07,4.29,2.2,8.34,4.77,12.49,7.23,4,2.66,8.09,5.24,11.95,8.15,9.2,6.95,18.03,15.25,26.07,24.68,8.04,9.42,15.28,19.95,21.44,31.22,12.36,22.54,20.14,47.96,23.39,72.88.96.65,1.84.98,2.73.89.88-.08,1.75-.59,2.53-1.6-.99-13.98-3.74-27.88-8.03-41.27-4.29-13.39-10.11-26.28-17.17-38.39-14.14-24.27-33.14-45.34-54.97-62.75-.38-.22-.77-.44-1.15-.66-10.57-5.81-23.89-13.83-38.87-20.12-14.89-6.39-31.25-11.2-45.83-12.63-14.61-1.15-29.08-1.27-43.32.04-14.23,1.3-28.25,4.06-41.55,8.68,4.91-1.24,9.87-2.04,14.79-2.97,4.96-.64,9.88-1.44,14.84-1.75,4.94-.54,9.89-.57,14.83-.78,4.94.1,9.87.02,14.78.46,4.93.22,9.81.92,14.7,1.5,4.85.86,9.73,1.59,14.52,2.82,4.83,1.03,9.56,2.53,14.3,3.96,2.34.83,4.67,1.67,7.02,2.5,1.18.4,2.33.88,3.47,1.37l3.45,1.46Z"/>
    <path class="cls-2" d="m75.71,198.96c2.17-9.14,5.06-18.22,8.87-27.02l.45-1.17.51-1.14c.34-.76.68-1.51,1.01-2.26.68-1.5,1.31-3.02,2.02-4.49.73-1.46,1.46-2.91,2.18-4.35.36-.73.72-1.45,1.08-2.17.37-.72.78-1.4,1.16-2.11,1.57-2.79,3.05-5.61,4.77-8.26.83-1.35,1.65-2.69,2.47-4.03.88-1.3,1.77-2.59,2.64-3.88,7.06-10.31,14.96-19.83,23.99-28.54-13.94,11.92-26.32,25.83-36.19,41.53-4.68,8.02-8,15.99-10.22,23.98-2.25,7.98-3.8,15.84-4.76,23.91Z"/>
    <path class="cls-2" d="m142.36,96.18c-1.36,1.08-2.76,2.09-4.08,3.2-1.31,1.11-2.61,2.22-3.9,3.33l-1.94,1.64-1.86,1.74-3.7,3.45c10.42-8.74,21.76-16.34,33.81-22.59,12.09-6.17,24.88-10.95,38.08-14.26,21.58-5.93,44.63-7.64,67.34-5.07,22.72,2.57,45.13,9.54,65.82,20.48,2.31,1.3,4.63,2.59,6.91,3.93,2.22,1.43,4.44,2.86,6.65,4.29-17.41-13.17-37.25-23.1-58-29.15-10.38-3.01-20.97-5.15-31.61-6.18-10.63-1.03-21.28-1.09-31.73-.27l-3.91.36c-1.3.13-2.6.21-3.89.43-2.58.38-5.14.76-7.71,1.14-2.54.51-5.06,1.03-7.59,1.54-1.26.23-2.51.56-3.74.89-1.24.32-2.48.65-3.71.97-9.85,2.69-19.3,6.24-28.2,10.5-8.88,4.32-17.17,9.41-24.8,15.01-.95.71-1.89,1.42-2.83,2.13-.94.7-1.88,1.4-2.76,2.18-1.79,1.51-3.56,3.01-5.33,4.5-3.38,3.16-6.74,6.25-9.76,9.6-.88.98-1.93,2.01-2.85,3.06,24.82-23.28,55.94-39.43,89.28-45.91-23.3,5.17-45.25,15.16-63.99,29.06Z"/>
    <path class="cls-2" d="m297.39,59.61c1.28.45,2.55.89,3.81,1.33.63.22,1.27.43,1.89.67l1.86.75c1.49.48,2.97.96,4.44,1.43l2.21.71c.73.24,1.44.53,2.17.8-1.68-.87-3.43-1.57-5.15-2.31-1.87-.61-3.73-1.22-5.59-1.83-1.89-.51-3.77-1.03-5.64-1.54Z"/>
    <path class="cls-2" d="m217.44,35.44c-.37,0-.74.02-1.13.03-9.43,1.35-18.98,2.99-28.37,5.63-12.81,4.14-25.75,9.52-38.28,16.11,11.48-5.73,23.46-10.31,35.04-13.85,11.6-3.5,22.79-5.9,32.74-7.91Z"/>
    <path class="cls-2" d="m131.31,46.73c-1.45.7-3.51,1.95-5.61,3.14-2.08,1.21-4.19,2.39-5.56,3.24-1.46,1.35-2.89,2.69-4.35,4.04,2.55-1.57,5.07-3.25,7.74-4.67l3.87-2.9c1.3-.96,2.57-1.96,3.92-2.84Z"/>
    <path class="cls-2" d="m28.37,194.84c5.09-26.85,15.2-52.05,29.18-74.42,6.99-11.19,14.94-21.7,23.75-31.38,8.83-9.68,18.49-18.55,28.89-26.53.92-.9,1.82-1.84,2.76-2.73.95-.88,1.9-1.76,2.84-2.64-3.79,2.28-7.35,4.9-10.95,7.44-1.82,1.24-3.5,2.67-5.24,4.02-1.72,1.38-3.46,2.71-5.13,4.13-1.64,1.45-3.28,2.9-4.92,4.35l-2.44,2.19-2.33,2.29c-1.54,1.54-3.08,3.07-4.61,4.6-1.51,1.55-2.92,3.19-4.37,4.78-5.8,6.37-10.89,13.22-15.57,20.14-1.16,1.73-2.22,3.54-3.31,5.29-1.06,1.78-2.17,3.51-3.14,5.32-.96,1.81-1.91,3.62-2.85,5.41-.46.9-.92,1.8-1.38,2.69-.45.9-.84,1.83-1.26,2.74-2.73,5.72-5.58,14.83-8.1,20.49-5.93,13.51-10.01,27.39-12.51,41.29-2.5,13.9-3.42,27.8-3.07,41.53-.01-13.12,1.13-26.43,3.58-39.88.07-.38.14-.74.21-1.12Z"/>
  </g>
</svg>